<?xml version="1.0" encoding="utf-8"?>
<!-- Generator: Adobe Illustrator 13.0.2, SVG Export Plug-In . SVG Version: 6.00 Build 14948)  -->
<!DOCTYPE svg PUBLIC "-//W3C//DTD SVG 1.1//EN" "http://www.w3.org/Graphics/SVG/1.1/DTD/svg11.dtd">
<svg version="1.1" id="Ebene_1" xmlns="http://www.w3.org/2000/svg" xmlns:xlink="http://www.w3.org/1999/xlink" x="0px" y="0px"
	 width="183.92px" height="201.43px" viewBox="0 0 183.92 201.43" enable-background="new 0 0 183.92 201.43" xml:space="preserve">
<path d="M5.001,137.006c0-2.853,0.766-5.084,2.297-6.697c1.531-1.613,3.508-2.42,5.93-2.42c1.586,0,3.016,0.379,4.289,1.137
	c1.273,0.759,2.244,1.814,2.912,3.17c0.668,1.356,1.002,2.894,1.002,4.611c0,1.742-0.352,3.301-1.055,4.676
	s-1.699,2.416-2.988,3.123c-1.289,0.707-2.68,1.062-4.172,1.062c-1.617,0-3.063-0.392-4.336-1.172
	c-1.273-0.781-2.238-1.849-2.895-3.199C5.328,139.945,5.001,138.514,5.001,137.006z M7.345,137.041c0,2.069,0.557,3.701,1.67,4.893
	c1.113,1.192,2.51,1.787,4.189,1.787c1.711,0,3.119-0.602,4.225-1.805s1.658-2.91,1.658-5.121c0-1.398-0.236-2.619-0.709-3.662
	s-1.164-1.852-2.074-2.426c-0.91-0.574-1.932-0.861-3.064-0.861c-1.609,0-2.994,0.553-4.154,1.658
	C7.926,132.609,7.345,134.455,7.345,137.041z"/>
<path d="M74.829,145.373v-17.181h2.332l9.023,13.488v-13.488h2.18v17.181h-2.332l-9.023-13.5v13.5H74.829z"/>
<g>
	<path d="M91.058,145.373v-17.181h2.273v7.056h8.93v-7.056h2.273v17.181h-2.273v-8.099h-8.93v8.099H91.058z"/>
</g>
<g>
	<path d="M41.044,125.532v-17.181h6.48c1.141,0,2.012,0.056,2.613,0.164c0.844,0.142,1.551,0.408,2.121,0.803
		c0.57,0.396,1.029,0.947,1.377,1.658c0.348,0.711,0.521,1.492,0.521,2.344c0,1.462-0.465,2.697-1.395,3.71
		c-0.93,1.012-2.609,1.518-5.039,1.518h-4.406v6.984H41.044z M43.317,116.521h4.441c1.469,0,2.512-0.272,3.129-0.819
		c0.617-0.548,0.926-1.316,0.926-2.31c0-0.719-0.182-1.334-0.545-1.846c-0.363-0.512-0.842-0.851-1.436-1.014
		c-0.383-0.103-1.09-0.152-2.121-0.152h-4.395L43.317,116.521L43.317,116.521z"/>
</g>
<polygon points="14.094,175.129 12.394,176.078 12.394,147.878 14.094,147.878 "/>
<polygon points="47.594,194.479 47.594,196.428 12.394,176.078 14.094,175.129 "/>
<polygon points="81.144,175.129 82.844,176.078 47.594,196.428 47.594,194.479 "/>
<polygon points="81.144,147.578 82.844,147.578 82.844,176.078 81.144,175.129 "/>
<polygon points="53.494,120.479 54.344,118.979 72.094,129.229 71.244,130.678 "/>
<polygon points="22.694,131.428 21.844,129.979 37.094,121.178 37.944,122.629 "/>
<g>
	<path d="M60.669,91.178v-17.18h2.332l9.023,13.487V73.998h2.18v17.18h-2.332l-9.023-13.5v13.5H60.669z"/>
</g>
<polygon points="59.794,93.228 61.294,94.078 53.594,107.428 52.094,106.578 "/>
<g>
	<path d="M19.554,82.811c0-2.852,0.766-5.084,2.297-6.696c1.531-1.613,3.508-2.421,5.93-2.421c1.586,0,3.016,0.38,4.289,1.138
		s2.244,1.813,2.912,3.17c0.668,1.355,1.002,2.893,1.002,4.61c0,1.742-0.352,3.302-1.055,4.677
		c-0.703,1.375-1.699,2.416-2.988,3.123s-2.68,1.061-4.172,1.061c-1.617,0-3.063-0.391-4.336-1.172s-2.238-1.848-2.895-3.199
		C19.881,85.75,19.554,84.318,19.554,82.811z M21.897,82.846c0,2.07,0.557,3.701,1.67,4.894c1.113,1.191,2.51,1.786,4.189,1.786
		c1.711,0,3.119-0.602,4.225-1.805s1.658-2.91,1.658-5.121c0-1.397-0.236-2.619-0.709-3.662c-0.473-1.043-1.164-1.852-2.074-2.426
		s-1.932-0.861-3.064-0.861c-1.609,0-2.994,0.554-4.154,1.658C22.478,78.414,21.897,80.26,21.897,82.846z"/>
</g>
<polygon points="30.394,93.978 31.894,93.128 40.094,107.328 38.594,108.178 "/>
<polygon points="35.594,90.978 37.044,90.128 44.444,102.979 42.994,103.828 "/>
<polygon points="46.644,47.378 48.594,47.378 61.994,70.528 60.494,71.378 "/>
<polygon points="106.594,80.878 107.594,82.578 76.444,82.578 76.444,80.878 "/>
<polygon points="66.944,12.178 67.944,13.878 48.594,47.378 46.644,47.378 "/>
<polygon points="126.444,46.528 127.394,48.228 107.594,82.578 106.594,80.878 "/>
<g>
	<path d="M172.052,50.795l2.273,0.574c-0.477,1.866-1.334,3.291-2.572,4.271c-1.238,0.98-2.752,1.471-4.541,1.471
		c-1.852,0-3.357-0.377-4.518-1.131c-1.161-0.754-2.043-1.846-2.648-3.274c-0.605-1.43-0.908-2.965-0.908-4.605
		c0-1.789,0.342-3.35,1.025-4.682s1.656-2.344,2.918-3.035s2.65-1.037,4.166-1.037c1.719,0,3.164,0.438,4.336,1.313
		s1.988,2.104,2.449,3.69l-2.238,0.527c-0.398-1.25-0.977-2.16-1.734-2.73c-0.757-0.569-1.711-0.854-2.858-0.854
		c-1.32,0-2.425,0.315-3.312,0.949c-0.887,0.633-1.51,1.481-1.869,2.549c-0.358,1.066-0.539,2.166-0.539,3.299
		c0,1.461,0.213,2.736,0.64,3.826c0.426,1.09,1.088,1.903,1.985,2.442c0.898,0.539,1.871,0.81,2.918,0.81
		c1.273,0,2.353-0.367,3.234-1.103C171.142,53.33,171.739,52.24,172.052,50.795z"/>
	<path d="M176.81,56.818v-17.18h2.109v17.18H176.81z"/>
</g>
<polygon points="156.894,46.528 156.894,48.228 127.394,48.228 126.444,46.528 "/>
<g>
	<path d="M112.604,16.451l2.272,0.573c-0.478,1.867-1.334,3.291-2.571,4.271c-1.238,0.979-2.752,1.471-4.541,1.471
		c-1.853,0-3.357-0.377-4.519-1.131s-2.043-1.846-2.647-3.275c-0.605-1.429-0.908-2.965-0.908-4.604c0-1.789,0.342-3.35,1.024-4.682
		s1.656-2.345,2.918-3.035c1.263-0.691,2.65-1.037,4.166-1.037c1.72,0,3.164,0.438,4.336,1.313c1.173,0.875,1.988,2.105,2.449,3.691
		l-2.237,0.527c-0.398-1.25-0.978-2.16-1.734-2.73c-0.758-0.57-1.711-0.854-2.859-0.854c-1.32,0-2.424,0.315-3.311,0.948
		c-0.887,0.634-1.51,1.482-1.869,2.549c-0.359,1.067-0.539,2.166-0.539,3.3c0,1.461,0.213,2.735,0.639,3.825
		c0.426,1.091,1.088,1.904,1.986,2.443s1.871,0.81,2.918,0.81c1.273,0,2.352-0.367,3.234-1.103
		C111.692,18.986,112.292,17.896,112.604,16.451z"/>
	<path d="M117.362,22.475V5.295h2.109v17.18H117.362z"/>
</g>
<polygon points="97.394,12.178 97.394,13.878 67.944,13.878 66.944,12.178 "/>
</svg>
